<?xml version="1.0" ?><svg style="enable-background:new 0 0 442.884 410.117;" version="1.1" viewBox="0 0 442.884 410.117" xml:space="preserve" xmlns="http://www.w3.org/2000/svg" xmlns:xlink="http://www.w3.org/1999/xlink"><g id="Cappuccino"><path d="M103.959,146.942c0,0-15.986,202.878,176.129,215.162c0,0-30.349,28.42-102.297,33.242   S31.744,353.339,13.002,154.177L103.959,146.942z" style="fill:#FDBB03;"/><path d="M415.714,149.523c-22.572-10.955-44.054-5.7-60.153,3.545c-0.046-4.616-0.168-7.643-0.211-8.518   c-0.367-7.485-6.545-13.364-14.04-13.364h-4.714c1.078-9.506,0.951-19.088-0.692-28.746C325.821,43.15,267.983,3.995,265.525,2.358   c-6.277-4.177-14.73-2.667-19.164,3.429c-18.124,24.909-51.29,28.084-86.402,31.443c-29.772,2.849-60.556,5.793-85.318,22.239   C47.831,77.274,32,98.95,27.583,123.893c-0.438,2.474-0.702,4.894-0.896,7.289H14.274c-7.495,0-13.673,5.882-14.04,13.367   c-0.415,8.391-8.621,206.228,122.626,264.362c1.795,0.793,3.734,1.205,5.694,1.205h98.483c1.96,0,3.899-0.412,5.694-1.205   c41.247-18.268,68.704-50.343,86.975-85.99c76.898-6.586,113.448-58.731,121.374-101.41   C447.253,188.259,437.297,160.004,415.714,149.523z M55.268,128.794c3.02-17.074,14.774-32.521,34.927-45.906   c18.896-12.547,44.907-15.039,72.441-17.671c33.578-3.216,71.12-6.806,97.034-31.999c15.008,12.461,42.673,39.563,48.517,73.934   c1.362,8.017,1.225,16.037-0.046,24.034l-253.191-0.003C55.052,130.387,55.126,129.597,55.268,128.794z M223.985,382.002h-92.381   C38.455,338.307,28.859,202.56,28.221,159.297l299.141,0.003C326.724,202.56,317.131,338.307,223.985,382.002z M413.435,216.377   c-5.573,30.012-30.077,66.041-80.553,76.227c13.496-36.814,19.097-74.343,21.314-102.457c0.161-0.172,0.35-0.305,0.504-0.491   c0.937-1.119,23.238-27.215,48.733-14.84C412.855,179.388,417.059,196.867,413.435,216.377z" style="fill:#352517;"/></g><g id="Layer_1"/></svg>